<svg xmlns="http://www.w3.org/2000/svg" xmlns:xlink="http://www.w3.org/1999/xlink" viewBox="0,0,256,256" width="48px" height="48px"><g fill="#ffffff" fill-rule="nonzero" stroke="none" stroke-width="1" stroke-linecap="butt" stroke-linejoin="miter" stroke-miterlimit="10" stroke-dasharray="" stroke-dashoffset="0" font-family="none" font-weight="none" font-size="none" text-anchor="none" style="mix-blend-mode: normal"><g transform="scale(5.33333,5.33333)"><path d="M31.8457,7.0332c-0.27373,-0.00608 -0.54615,0.01315 -0.8125,0.05664c-1.59811,0.26091 -3.00269,1.37975 -3.54492,3.00195c-0.1179,0.35252 -0.22428,0.70517 -0.3125,1.0625c-1.349,-0.12359 -2.47677,-0.14648 -3.17578,-0.14649c-0.69901,0 -1.82678,0.0229 -3.17578,0.14649c-0.08815,-0.35669 -0.19481,-0.70863 -0.3125,-1.06055c-0.54223,-1.62221 -1.94681,-2.74104 -3.54492,-3.00195c-0.5327,-0.08697 -1.08777,-0.07739 -1.63867,0.03906c-2.21004,0.46739 -5.3664,1.37425 -7.85547,3.39453c-0.02682,0.02188 -0.05288,0.04468 -0.07812,0.06836c-0.78557,0.73276 -1.32738,1.72222 -1.99609,3.11719c-0.66871,1.39497 -1.36228,3.14981 -2,5.15039c-1.27545,4.00116 -2.32422,8.97661 -2.32422,13.9082c0.00007,0.25799 0.06666,0.51159 0.19336,0.73633c2.34554,4.16203 7.43776,5.7402 10.55664,6.36914c1.72044,0.34679 3.49272,-0.35964 4.51953,-1.7832l1.23633,-1.71484c1.84795,0.3869 3.98713,0.64258 6.41992,0.64258c2.43279,0 4.57197,-0.25568 6.41992,-0.64258l1.23438,1.71289c1.02642,1.42509 2.80088,2.13003 4.52148,1.7832c3.11888,-0.62894 8.20915,-2.20711 10.55469,-6.36914c0.1267,-0.22473 0.19329,-0.47834 0.19336,-0.73633c0,-4.9316 -1.04682,-9.90718 -2.32227,-13.9082c-0.63772,-2.00051 -1.33326,-3.7554 -2.00195,-5.15039c-0.6687,-1.39499 -1.21098,-2.38442 -1.99609,-3.11719c-0.02525,-0.02368 -0.0513,-0.04648 -0.07812,-0.06836c-2.48889,-2.02014 -5.64425,-2.92712 -7.85547,-3.39453c-0.27545,-0.05823 -0.55049,-0.08962 -0.82422,-0.0957zM31.76953,10.03125c0.09183,0.00282 0.18575,0.01343 0.2793,0.0332c1.95403,0.41305 4.69786,1.29275 6.53125,2.75781c0.12298,0.12443 0.7303,0.96497 1.31445,2.18359c0.59421,1.2396 1.24776,2.88181 1.84766,4.76367c1.15863,3.63459 2.07255,8.17236 2.13672,12.5332c-1.65928,2.52338 -5.71355,4.10797 -8.29687,4.62891c-0.57139,0.11518 -1.13861,-0.10479 -1.49219,-0.5957l-0.58008,-0.80273c0.60038,-0.20375 1.16508,-0.4153 1.66797,-0.62891c2.51411,-1.06791 3.9043,-2.23242 3.9043,-2.23242c0.40793,-0.34782 0.59929,-0.88687 0.50199,-1.41405c-0.0973,-0.52718 -0.46848,-0.9624 -0.9737,-1.14168c-0.50522,-0.17928 -1.06771,-0.07539 -1.47555,0.27253c0,0 -0.94752,0.82927 -3.12891,1.75586c-2.18139,0.92659 -5.50028,1.875 -10.00586,1.875c-4.50558,0 -7.82447,-0.94841 -10.00586,-1.875c-2.18139,-0.92659 -3.12891,-1.75586 -3.12891,-1.75586c-0.26568,-0.23352 -0.60534,-0.36565 -0.95898,-0.37305c-0.6386,-0.01394 -1.21599,0.37802 -1.43873,0.97668c-0.22274,0.59866 -0.04196,1.27271 0.45045,1.67957c0,0 1.39019,1.16451 3.9043,2.23242c0.50289,0.21361 1.06759,0.42516 1.66797,0.62891l-0.58008,0.80469c-0.35519,0.49243 -0.92258,0.71287 -1.49414,0.59766c-2.58332,-0.52094 -6.6376,-2.10748 -8.29688,-4.63086c0.06417,-4.36086 0.97808,-8.8985 2.13672,-12.5332c0.5999,-1.88192 1.25541,-3.52414 1.84961,-4.76367c0.58414,-1.21854 1.18995,-2.05963 1.3125,-2.18359c1.83324,-1.46493 4.57802,-2.34474 6.53125,-2.75781c0.74838,-0.15819 1.46977,0.23946 1.7168,0.97852c0.06422,0.19203 0.11075,0.36978 0.16016,0.54883c-2.23543,0.44356 -4.72926,1.21389 -7.0918,2.61719c-0.48046,0.26375 -0.77883,0.76852 -0.77826,1.31661c0.00057,0.54809 0.30001,1.05224 0.78102,1.31498c0.48101,0.26274 1.06702,0.24224 1.52849,-0.05346c4.35719,-2.58808 9.74195,-2.78125 11.73438,-2.78125c1.99243,0 7.37718,0.19317 11.73438,2.78125c0.46148,0.2957 1.04748,0.3162 1.52849,0.05346c0.48101,-0.26274 0.78044,-0.76689 0.78102,-1.31498c0.00057,-0.54809 -0.2978,-1.05286 -0.77826,-1.31661c-2.36319,-1.40369 -4.85786,-2.17369 -7.09375,-2.61719c0.04951,-0.17954 0.09572,-0.35812 0.16016,-0.55078c0.21615,-0.64667 0.79469,-1.03148 1.4375,-1.01172zM17.53516,22c-1.90765,0.00968 -3.44962,1.77977 -3.44962,3.95996c0,2.18019 1.54198,3.95029 3.44962,3.95996c1.90765,-0.00968 3.44962,-1.77977 3.44962,-3.95996c0,-2.18019 -1.54198,-3.95029 -3.44962,-3.95996zM30.44531,22c-1.933,0 -3.5,1.79086 -3.5,4c0,2.20914 1.567,4 3.5,4c1.933,0 3.5,-1.79086 3.5,-4c0,-2.20914 -1.567,-4 -3.5,-4z"></path></g></g></svg>